{
  "accessors": [
    {
      "bufferView": 2,
      "componentType": 5126,
      "count": 1617,
      "max": [
        0.6363460421562195,
        0.6363459825515747,
        0.24365665018558502
      ],
      "min": [
        -0.6363459825515747,
        -0.6363459825515747,
        -0.24365665018558502
      ],
      "type": "VEC3"
    },
    {
      "bufferView": 2,
      "byteOffset": 19404,
      "componentType": 5126,
      "count": 1617,
      "max": [
        1.0,
        1.0,
        0.9999915361404419
      ],
      "min": [
        -1.0,
        -1.0,
        -0.9999914765357971
      ],
      "type": "VEC3"
    },
    {
      "bufferView": 1,
      "componentType": 5126,
      "count": 1617,
      "max": [
        1.0000001192092896,
        1.0000001192092896
      ],
      "min": [
        -4.440892627896218e-16,
        0.0
      ],
      "type": "VEC2"
    },
    {
      "bufferView": 0,
      "componentType": 5125,
      "count": 9216,
      "type": "SCALAR"
    },
    {
      "bufferView": 2,
      "byteOffset": 38808,
      "componentType": 5126,
      "count": 1676,
      "max": [
        0.6426173448562622,
        0.6426173448562622,
        0.24365665018558502
      ],
      "min": [
        -0.6488888263702393,
        -0.6426172852516174,
        -0.12319712340831757
      ],
      "type": "VEC3"
    },
    {
      "bufferView": 2,
      "byteOffset": 58920,
      "componentType": 5126,
      "count": 1676,
      "max": [
        0.9822739362716675,
        0.9768338203430176,
        0.9999915361404419
      ],
      "min": [
        -0.9758056998252869,
        -0.9809859991073608,
        -0.9999915361404419
      ],
      "type": "VEC3"
    },
    {
      "bufferView": 1,
      "byteOffset": 12936,
      "componentType": 5126,
      "count": 1676,
      "max": [
        1.0000001192092896,
        1.0000001192092896
      ],
      "min": [
        -4.440892627896218e-16,
        0.5
      ],
      "type": "VEC2"
    },
    {
      "bufferView": 0,
      "byteOffset": 36864,
      "componentType": 5125,
      "count": 9852,
      "type": "SCALAR"
    }
  ],
  "asset": {
    "extras": {
      "author": "Creator20_Guest (https://sketchfab.com/Creator20_Guest)",
      "license": "SKETCHFAB Standard (https://sketchfab.com/licenses)",
      "source": "https://sketchfab.com/3d-models/basic-donut-done-in-blender-e1b163c601014f8483d58db6231f4fe2",
      "title": "Basic Donut done in Blender"
    },
    "generator": "Sketchfab-15.53.0",
    "version": "2.0"
  },
  "bufferViews": [
    {
      "buffer": 0,
      "byteLength": 76272,
      "name": "floatBufferViews",
      "target": 34963
    },
    {
      "buffer": 0,
      "byteLength": 26344,
      "byteOffset": 76272,
      "byteStride": 8,
      "name": "floatBufferViews",
      "target": 34962
    },
    {
      "buffer": 0,
      "byteLength": 79032,
      "byteOffset": 102616,
      "byteStride": 12,
      "name": "floatBufferViews",
      "target": 34962
    }
  ],
  "buffers": [
    {
      "byteLength": 181648,
      "uri": "scene.bin"
    }
  ],
  "materials": [
    {
      "doubleSided": true,
      "name": "dough",
      "pbrMetallicRoughness": {
        "baseColorFactor": [
          0.8,
          0.302794,
          0.130719,
          1.0
        ],
        "metallicFactor": 0.0,
        "roughnessFactor": 0.9114346735909916
      }
    },
    {
      "doubleSided": true,
      "name": "glaze",
      "pbrMetallicRoughness": {
        "baseColorFactor": [
          0.8,
          0.112662,
          0.203264,
          1.0
        ],
        "metallicFactor": 0.0,
        "roughnessFactor": 0.931120365894504
      }
    }
  ],
  "meshes": [
    {
      "name": "donutdough_dough_0",
      "primitives": [
        {
          "attributes": {
            "NORMAL": 1,
            "POSITION": 0,
            "TEXCOORD_0": 2
          },
          "indices": 3,
          "material": 0,
          "mode": 4
        }
      ]
    },
    {
      "name": "donutglaze_glaze_0",
      "primitives": [
        {
          "attributes": {
            "NORMAL": 5,
            "POSITION": 4,
            "TEXCOORD_0": 6
          },
          "indices": 7,
          "material": 1,
          "mode": 4
        }
      ]
    }
  ],
  "nodes": [
    {
      "children": [
        1
      ],
      "matrix": [
        1.0,
        0.0,
        0.0,
        0.0,
        0.0,
        2.220446049250313e-16,
        -1.0,
        0.0,
        0.0,
        1.0,
        2.220446049250313e-16,
        0.0,
        0.0,
        0.0,
        0.0,
        1.0
      ],
      "name": "Sketchfab_model"
    },
    {
      "children": [
        2
      ],
      "matrix": [
        0.009999999776482582,
        0.0,
        0.0,
        0.0,
        0.0,
        0.0,
        0.009999999776482582,
        0.0,
        0.0,
        -0.009999999776482582,
        0.0,
        0.0,
        0.0,
        0.0,
        0.0,
        1.0
      ],
      "name": "23bcd42ead034a05a1377a0ead212226.fbx"
    },
    {
      "children": [
        3,
        5,
        7
      ],
      "name": "RootNode"
    },
    {
      "children": [
        4
      ],
      "matrix": [
        -65.1558127516791,
        -44.52713915455176,
        -61.417049289096546,
        0.0,
        -32.401349332924404,
        89.53957282709818,
        -30.5420854760369,
        0.0,
        68.59207001076241,
        8.666908837178815e-06,
        -72.76761921184274,
        0.0,
        735.88916015625,
        495.8309326171875,
        692.5791015625,
        1.0
      ],
      "name": "Camera"
    },
    {
      "name": "Object_4"
    },
    {
      "children": [
        6
      ],
      "matrix": [
        100.0,
        0.0,
        0.0,
        0.0,
        0.0,
        -1.629206793918314e-05,
        -99.99999999999868,
        0.0,
        0.0,
        113.6916503906235,
        -1.85227209228192e-05,
        0.0,
        0.0,
        28.30276870727539,
        0.0,
        1.0
      ],
      "name": "donutdough"
    },
    {
      "mesh": 0,
      "name": "donutdough_dough_0"
    },
    {
      "children": [
        8
      ],
      "matrix": [
        100.0,
        0.0,
        0.0,
        0.0,
        0.0,
        -1.629206793918314e-05,
        -99.99999999999868,
        0.0,
        0.0,
        99.99999999999868,
        -1.629206793918314e-05,
        0.0,
        0.0,
        32.87841796875,
        0.0,
        1.0
      ],
      "name": "donutglaze"
    },
    {
      "mesh": 1,
      "name": "donutglaze_glaze_0"
    }
  ],
  "scene": 0,
  "scenes": [
    {
      "name": "Sketchfab_Scene",
      "nodes": [
        0
      ]
    }
  ]
}
